<?xml version="1.0" encoding="UTF-8" standalone="no"?>
<svg
   viewBox="0 0 448 512"
   version="1.1"
   id="svg1"
   sodipodi:docname="instagram-brands-solid.svg"
   inkscape:version="1.4 (86a8ad7, 2024-10-11)"
   xmlns:inkscape="http://www.inkscape.org/namespaces/inkscape"
   xmlns:sodipodi="http://sodipodi.sourceforge.net/DTD/sodipodi-0.dtd"
   xmlns="http://www.w3.org/2000/svg"
   xmlns:svg="http://www.w3.org/2000/svg">
  <defs
     id="defs1" />
  <sodipodi:namedview
     id="namedview1"
     pagecolor="#ffffff"
     bordercolor="#000000"
     borderopacity="0.25"
     inkscape:showpageshadow="2"
     inkscape:pageopacity="0.0"
     inkscape:pagecheckerboard="0"
     inkscape:deskcolor="#d1d1d1"
     inkscape:zoom="1.2246094"
     inkscape:cx="224.15311"
     inkscape:cy="256"
     inkscape:window-width="1600"
     inkscape:window-height="829"
     inkscape:window-x="-8"
     inkscape:window-y="-8"
     inkscape:window-maximized="1"
     inkscape:current-layer="svg1" />
  <!--!Font Awesome Free 6.7.1 by @fontawesome - https://fontawesome.com License - https://fontawesome.com/license/free Copyright 2024 Fonticons, Inc.-->
  <path
     d="M224.1 141c-63.6 0-114.9 51.3-114.9 114.9s51.3 114.9 114.9 114.9S339 319.5 339 255.9 287.7 141 224.1 141zm0 189.6c-41.1 0-74.7-33.5-74.7-74.7s33.5-74.7 74.7-74.7 74.7 33.5 74.7 74.7-33.6 74.7-74.7 74.7zm146.4-194.3c0 14.9-12 26.8-26.8 26.8-14.9 0-26.8-12-26.8-26.8s12-26.8 26.8-26.8 26.8 12 26.8 26.8zm76.1 27.2c-1.7-35.9-9.9-67.7-36.2-93.9-26.2-26.2-58-34.4-93.9-36.2-37-2.1-147.9-2.1-184.9 0-35.8 1.7-67.6 9.9-93.9 36.1s-34.4 58-36.2 93.9c-2.1 37-2.1 147.9 0 184.9 1.7 35.9 9.9 67.7 36.2 93.9s58 34.4 93.9 36.2c37 2.1 147.9 2.1 184.9 0 35.9-1.7 67.7-9.9 93.9-36.2 26.2-26.2 34.4-58 36.2-93.9 2.1-37 2.1-147.8 0-184.8zM398.8 388c-7.8 19.6-22.9 34.7-42.6 42.6-29.5 11.7-99.5 9-132.1 9s-102.7 2.6-132.1-9c-19.6-7.8-34.7-22.9-42.6-42.6-11.7-29.5-9-99.5-9-132.1s-2.6-102.7 9-132.1c7.8-19.6 22.9-34.7 42.6-42.6 29.5-11.7 99.5-9 132.1-9s102.7-2.6 132.1 9c19.6 7.8 34.7 22.9 42.6 42.6 11.7 29.5 9 99.5 9 132.1s2.7 102.7-9 132.1z"
     id="path1" />
  <path
     style="fill:#ffffff;stroke-width:0.816587"
     d="M 158.41786,478.95141 C 118.89495,477.92748 101.91042,475.80472 83.1683,469.54659 48.353067,457.92152 21.392435,430.68626 9.8690131,395.50064 6.6864009,385.78285 4.1425741,373.21172 2.8737716,360.93142 -0.39073521,329.33539 -0.38890222,182.77089 2.8763962,151.06858 4.9851761,130.59474 9.1975035,115.02441 16.794088,99.623604 22.731327,87.586848 29.713361,78.157395 39.898619,68.420225 60.021967,49.182179 83.453166,38.930948 116.00582,35.123058 c 18.13285,-2.121112 67.20179,-3.105748 129.78684,-2.604352 72.76676,0.582967 88.62103,1.556663 109.03661,6.696527 44.48302,11.199127 76.62287,44.326333 86.95325,89.624487 4.02222,17.63725 5.11429,36.60739 5.79252,100.62121 0.52719,49.75709 -0.50396,111.31571 -2.16804,129.42902 -1.0887,11.85045 -4.22664,27.64065 -7.38363,37.15471 -11.23438,33.85639 -37.26451,60.80702 -70.15096,72.63169 -15.23618,5.47832 -30.72871,8.14729 -54.71133,9.42536 -21.04062,1.12129 -122.71139,1.67958 -154.74322,0.8497 z m 151.88517,-39.97317 c 32.50984,-2.5251 46.89589,-6.38441 61.9984,-16.63214 13.79786,-9.36248 25.23091,-25.88284 29.46521,-42.57616 5.20523,-20.52119 6.21755,-37.11919 6.6025,-108.25479 0.60517,-111.83056 -1.79518,-137.5135 -14.90073,-159.43288 C 388.8983,104.43865 378.69765,93.622281 371.54705,88.837743 349.3152,73.962181 327.94827,71.466669 222.92823,71.480077 c -75.38451,0.0096 -97.86227,1.146863 -119.7496,6.058605 -26.688472,5.989169 -47.584196,25.018238 -55.6355,50.665468 -6.28894,20.03327 -7.909191,46.36445 -7.913976,128.61244 -0.0048,82.37757 1.636267,107.77412 8.257844,127.79585 6.234157,18.85028 20.060716,34.76714 37.80783,43.5236 14.638422,7.22263 33.948332,10.40214 69.864982,11.50377 27.2121,0.83464 141.78651,0.3448 154.74322,-0.66157 z"
     id="path2" />
  <path
     style="fill:#ffffff;stroke-width:0.816587"
     d="m 211.49601,369.82013 c -19.81523,-2.95936 -35.47753,-8.73812 -50.62839,-18.67988 -26.62252,-17.46928 -44.81427,-46.01477 -49.9494,-78.37784 -1.57777,-9.94357 -1.08457,-30.32336 0.959,-39.62684 5.03253,-22.911 15.27129,-41.77901 31.45187,-57.95959 16.51221,-16.51221 35.0729,-26.48727 58.79572,-31.59857 9.76679,-2.10434 34.24312,-2.10909 44.07615,-0.009 36.78298,7.85762 65.2629,30.18597 81.28806,63.73012 15.32635,32.0814 14.53221,69.79059 -2.14126,101.67464 -10.68683,20.43606 -28.33209,38.00722 -48.76538,48.5606 -8.03418,4.14949 -20.80578,8.66239 -30.38142,10.73542 -5.957,1.28961 -29.42989,2.33829 -34.70495,1.55048 z m 31.03031,-41.12201 c 13.7135,-3.50913 26.24629,-11.04603 36.40226,-21.89136 40.35615,-43.09542 16.65651,-114.57796 -41.34088,-124.69186 -39.58156,-6.90245 -76.92737,17.42643 -86.68098,56.46819 -2.18536,8.74759 -1.97595,27.26063 0.40797,36.065 7.95185,29.36814 31.96194,50.97581 61.8145,55.6294 7.28701,1.13594 21.8417,0.35399 29.39713,-1.57937 z"
     id="path3" />
  <path
     style="fill:#ffffff;stroke-width:0.816587"
     d="m 337.601,161.83742 c -8.18228,-2.30462 -14.84648,-7.88449 -18.12516,-15.17602 -2.3954,-5.32716 -2.40734,-15.38365 -0.0245,-20.64217 2.43766,-5.37954 7.79554,-10.86803 13.19231,-13.5139 6.14548,-3.01294 15.63376,-3.16139 21.45797,-0.33573 6.04563,2.93309 10.18807,7.02556 13.1014,12.94337 2.25555,4.58167 2.66356,6.30334 2.65278,11.1938 -0.0226,10.24417 -5.38455,18.85934 -14.50617,23.30727 -5.9459,2.89937 -12.45405,3.71465 -17.7486,2.22338 z"
     id="path4" />
</svg>
