<?xml version="1.0" encoding="UTF-8" standalone="no"?>
<svg
   viewBox="0 0 512 512"
   version="1.1"
   id="svg1"
   sodipodi:docname="x-twitter-brands-solid.svg"
   inkscape:version="1.4 (86a8ad7, 2024-10-11)"
   xmlns:inkscape="http://www.inkscape.org/namespaces/inkscape"
   xmlns:sodipodi="http://sodipodi.sourceforge.net/DTD/sodipodi-0.dtd"
   xmlns="http://www.w3.org/2000/svg"
   xmlns:svg="http://www.w3.org/2000/svg">
  <defs
     id="defs1" />
  <sodipodi:namedview
     id="namedview1"
     pagecolor="#ffffff"
     bordercolor="#000000"
     borderopacity="0.25"
     inkscape:showpageshadow="2"
     inkscape:pageopacity="0.0"
     inkscape:pagecheckerboard="0"
     inkscape:deskcolor="#d1d1d1"
     inkscape:zoom="1.2246094"
     inkscape:cx="256"
     inkscape:cy="256"
     inkscape:window-width="1600"
     inkscape:window-height="829"
     inkscape:window-x="-8"
     inkscape:window-y="-8"
     inkscape:window-maximized="1"
     inkscape:current-layer="svg1" />
  <!--!Font Awesome Free 6.7.1 by @fontawesome - https://fontawesome.com License - https://fontawesome.com/license/free Copyright 2024 Fonticons, Inc.-->
  <path
     d="M389.2 48h70.6L305.6 224.2 487 464H345L233.7 318.6 106.5 464H35.8L200.7 275.5 26.8 48H172.4L272.9 180.9 389.2 48zM364.4 421.8h39.1L151.1 88h-42L364.4 421.8z"
     id="path1" />
  <path
     style="fill:#ffffff;stroke-width:0.816587"
     d="m 44.694394,454.63477 c 4.224165,-4.82807 41.198878,-47.09755 82.166036,-93.93217 l 74.48573,-85.15387 -3.57164,-4.6707 C 180.68187,248.52565 32.079492,54.005484 30.296061,51.649123 l -2.317652,-3.062201 72.160711,0.01112 72.16072,0.01112 49.8118,65.880418 c 27.39649,36.23424 50.19907,66.00043 50.67241,66.1471 0.47332,0.14667 26.90516,-29.50453 58.7374,-65.89155 l 57.87682,-66.158207 h 34.71783 34.71783 l -2.49473,2.653907 c -1.37211,1.459649 -35.99562,40.969562 -76.94113,87.7998 l -74.4464,85.1459 89.69215,118.59254 c 49.33068,65.2259 89.96695,119.05187 90.30282,119.61327 0.48664,0.81341 -13.64461,1.02074 -69.57224,1.02074 h -70.18292 l -54.19064,-70.81712 c -29.80485,-38.94942 -54.92556,-71.66595 -55.82381,-72.7034 l -1.63317,-1.88627 -63.58793,72.7034 -63.58793,72.70339 H 71.691045 37.014095 Z M 403.63162,421.66362 C 403.46294,421.15755 346.75098,345.85025 277.60504,254.31406 L 151.88517,87.884618 130.38171,87.833856 c -12.56084,-0.02965 -21.39025,0.257567 -21.23126,0.690649 0.14971,0.407776 57.5966,75.726655 127.65976,167.375285 l 127.38756,166.63387 19.87028,0.025 c 14.38415,0.0181 19.7856,-0.22901 19.56357,-0.89508 z"
     id="path2" />
</svg>
